<svg width="22" height="19" viewBox="0 0 22 19" fill="none" xmlns="http://www.w3.org/2000/svg">
<path fill-rule="evenodd" clip-rule="evenodd" d="M8.47831 5.11748L8.47897 5.12036L8.47911 5.12093C8.48102 5.12859 8.48279 5.13625 8.48443 5.1439C9.33593 4.78956 10.2701 4.59392 11.2499 4.59392C12.2298 4.59392 13.164 4.78959 14.0155 5.14398C14.0171 5.13667 14.0188 5.12936 14.0206 5.12206L14.0206 5.12208C14.0205 5.12233 14.0205 5.12231 14.0206 5.12203L14.0207 5.12143L14.0208 5.12093C14.021 5.12066 14.0262 5.12166 14.6653 5.28144L14.021 5.12036L14.0217 5.11748L14.0278 5.09017C14.0334 5.06418 14.0418 5.02318 14.0514 4.96936C14.0707 4.8614 14.0944 4.70372 14.1103 4.51344C14.1425 4.12701 14.1397 3.63536 14.021 3.16063C13.9036 2.69126 13.6812 2.26699 13.2921 1.9557C12.9052 1.64616 12.2809 1.39024 11.25 1.39024C10.2191 1.39024 9.59479 1.64616 9.20785 1.9557C8.81874 2.26699 8.59631 2.69126 8.47897 3.16063C8.36029 3.63536 8.35745 4.12701 8.38966 4.51344C8.40551 4.70372 8.42924 4.8614 8.44852 4.96936C8.45813 5.02318 8.46656 5.06418 8.47219 5.09017L8.47831 5.11748ZM15.1968 5.77055C15.2782 5.68597 15.3392 5.57959 15.3697 5.45754L14.6954 5.28895C15.3697 5.45754 15.3698 5.45721 15.3699 5.45687L15.3701 5.45609L15.3705 5.4542L15.3718 5.44916L15.3754 5.43407C15.3782 5.42182 15.382 5.40522 15.3865 5.38455C15.3954 5.34325 15.4072 5.28555 15.42 5.21376C15.4456 5.07049 15.4757 4.86928 15.4957 4.62889C15.5353 4.15398 15.5382 3.49717 15.3697 2.82344C15.1999 2.14435 14.8481 1.42016 14.1606 0.870109C13.4708 0.318311 12.516 0 11.25 0C9.98396 0 9.02913 0.318311 8.33938 0.870109C7.65182 1.42016 7.30001 2.14435 7.13024 2.82344C6.96181 3.49717 6.96464 4.15398 7.00422 4.62889C7.02425 4.86928 7.05435 5.07049 7.07994 5.21376C7.09276 5.28555 7.10452 5.34325 7.11347 5.38455C7.11795 5.40522 7.12173 5.42182 7.1246 5.43407L7.12818 5.44916L7.12941 5.4542L7.12988 5.45609L7.13007 5.45687C7.13016 5.45721 7.13024 5.45754 7.80461 5.28895L7.13024 5.45754C7.16074 5.57956 7.22176 5.6859 7.30311 5.77047C6.78083 6.11321 6.30579 6.52201 5.88986 6.985L3.7023 4.79743C3.43083 4.52597 2.99071 4.52597 2.71925 4.79743C2.44779 5.06889 2.44779 5.50901 2.71925 5.78048L5.01617 8.07739C5.02952 8.09075 5.04328 8.10344 5.05742 8.11549C4.46481 9.11013 4.10504 10.2596 4.0533 11.4888C4.02805 11.486 4.0024 11.4846 3.97641 11.4846H1.67949C1.29559 11.4846 0.984375 11.7958 0.984375 12.1797C0.984375 12.5636 1.29559 12.8748 1.67949 12.8748H3.97641C4.02726 12.8748 4.07683 12.8694 4.12457 12.859C4.26428 13.8044 4.58768 14.69 5.05734 15.4783C5.04324 15.4904 5.0295 15.503 5.01617 15.5164L2.71925 17.8133C2.44779 18.0847 2.44779 18.5249 2.71925 18.7963C2.99071 19.0678 3.43083 19.0678 3.7023 18.7963L5.88978 16.6089C7.20842 18.0768 9.12133 19 11.2499 19C13.3785 19 15.2914 18.0767 16.6101 16.6087L18.7977 18.7963C19.0691 19.0678 19.5093 19.0678 19.7807 18.7963C20.0522 18.5249 20.0522 18.0847 19.7807 17.8133L17.4838 15.5164C17.4704 15.503 17.4566 15.4903 17.4425 15.4782C17.9121 14.6899 18.2355 13.8043 18.3752 12.859C18.423 12.8693 18.4726 12.8748 18.5236 12.8748H20.8205C21.2044 12.8748 21.5156 12.5636 21.5156 12.1797C21.5156 11.7958 21.2044 11.4846 20.8205 11.4846H18.5236C18.4975 11.4846 18.4718 11.486 18.4465 11.4888C18.3947 10.2597 18.035 9.11023 17.4424 8.1156C17.4566 8.10353 17.4704 8.09079 17.4838 8.07739L19.7807 5.78048C20.0522 5.50901 20.0522 5.06889 19.7807 4.79743C19.5093 4.52597 19.0691 4.52597 18.7977 4.79743L16.61 6.98511C16.1941 6.52211 15.719 6.1133 15.1968 5.77055ZM5.43707 11.797C5.43707 8.58665 8.03955 5.98416 11.2499 5.98416C14.4602 5.98416 17.0627 8.58665 17.0627 11.797C17.0627 15.0073 14.4602 17.6098 11.2499 17.6098C8.03955 17.6098 5.43707 15.0073 5.43707 11.797Z" fill="white"/>
</svg>
