<svg width="15" height="18" viewBox="0 0 15 18" fill="none" xmlns="http://www.w3.org/2000/svg">
<path fill-rule="evenodd" clip-rule="evenodd" d="M13.8805 7.60318H0.626784C0.318938 7.60318 0.0690918 7.35187 0.0690918 7.04222C0.0690918 6.73257 0.318938 6.48126 0.626784 6.48126H13.8805C14.1884 6.48126 14.4382 6.73257 14.4382 7.04222C14.4382 7.35187 14.1884 7.60318 13.8805 7.60318Z" fill="#C5C5C5"/>
<path fill-rule="evenodd" clip-rule="evenodd" d="M10.5597 10.5241C10.2518 10.5241 9.99902 10.2728 9.99902 9.96312C9.99902 9.65347 10.2452 9.40216 10.553 9.40216H10.5597C10.8675 9.40216 11.1174 9.65347 11.1174 9.96312C11.1174 10.2728 10.8675 10.5241 10.5597 10.5241Z" fill="#C5C5C5"/>
<path fill-rule="evenodd" clip-rule="evenodd" d="M7.26013 10.5241C6.95228 10.5241 6.69946 10.2728 6.69946 9.96312C6.69946 9.65347 6.94559 9.40216 7.25344 9.40216H7.26013C7.56798 9.40216 7.81782 9.65347 7.81782 9.96312C7.81782 10.2728 7.56798 10.5241 7.26013 10.5241Z" fill="#C5C5C5"/>
<path fill-rule="evenodd" clip-rule="evenodd" d="M3.95374 10.5241C3.6459 10.5241 3.39233 10.2728 3.39233 9.96312C3.39233 9.65347 3.63921 9.40216 3.94705 9.40216H3.95374C4.26159 9.40216 4.51144 9.65347 4.51144 9.96312C4.51144 10.2728 4.26159 10.5241 3.95374 10.5241Z" fill="#C5C5C5"/>
<path fill-rule="evenodd" clip-rule="evenodd" d="M10.5597 13.4311C10.2518 13.4311 9.99902 13.1798 9.99902 12.8702C9.99902 12.5605 10.2452 12.3092 10.553 12.3092H10.5597C10.8675 12.3092 11.1174 12.5605 11.1174 12.8702C11.1174 13.1798 10.8675 13.4311 10.5597 13.4311Z" fill="#C5C5C5"/>
<path fill-rule="evenodd" clip-rule="evenodd" d="M7.26013 13.4311C6.95228 13.4311 6.69946 13.1798 6.69946 12.8702C6.69946 12.5605 6.94559 12.3092 7.25344 12.3092H7.26013C7.56798 12.3092 7.81782 12.5605 7.81782 12.8702C7.81782 13.1798 7.56798 13.4311 7.26013 13.4311Z" fill="#C5C5C5"/>
<path fill-rule="evenodd" clip-rule="evenodd" d="M3.95374 13.4311C3.6459 13.4311 3.39233 13.1798 3.39233 12.8702C3.39233 12.5605 3.63921 12.3092 3.94705 12.3092H3.95374C4.26159 12.3092 4.51144 12.5605 4.51144 12.8702C4.51144 13.1798 4.26159 13.4311 3.95374 13.4311Z" fill="#C5C5C5"/>
<path fill-rule="evenodd" clip-rule="evenodd" d="M10.2567 4.52663C9.94882 4.52663 9.69897 4.27533 9.69897 3.96568V1.50419C9.69897 1.19455 9.94882 0.943237 10.2567 0.943237C10.5645 0.943237 10.8144 1.19455 10.8144 1.50419V3.96568C10.8144 4.27533 10.5645 4.52663 10.2567 4.52663Z" fill="#C5C5C5"/>
<path fill-rule="evenodd" clip-rule="evenodd" d="M4.24983 4.52663C3.94198 4.52663 3.69214 4.27533 3.69214 3.96568V1.50419C3.69214 1.19455 3.94198 0.943237 4.24983 0.943237C4.55768 0.943237 4.80752 1.19455 4.80752 1.50419V3.96568C4.80752 4.27533 4.55768 4.52663 4.24983 4.52663Z" fill="#C5C5C5"/>
<mask id="mask0_81_271" style="mask-type:alpha" maskUnits="userSpaceOnUse" x="0" y="2" width="15" height="16">
<path fill-rule="evenodd" clip-rule="evenodd" d="M0 2.12433H14.5V17.024H0V2.12433Z" fill="white"/>
</mask>
<g mask="url(#mask0_81_271)">
<path fill-rule="evenodd" clip-rule="evenodd" d="M4.10543 3.24625C2.1773 3.24625 1.11545 4.28066 1.11545 6.15874V12.9269C1.11545 14.8461 2.1773 15.9022 4.10543 15.9022H10.3947C12.3228 15.9022 13.3847 14.8655 13.3847 12.9837V6.15874C13.3877 5.23503 13.1408 4.51701 12.6508 4.02336C12.1466 3.51476 11.3696 3.24625 10.4014 3.24625H4.10543ZM10.3946 17.0241H4.10536C1.57344 17.0241 0 15.4542 0 12.9269V6.15874C0 3.66958 1.57344 2.12433 4.10536 2.12433H10.4013C11.6721 2.12433 12.7228 2.50728 13.4404 3.23054C14.1371 3.93435 14.5037 4.94632 14.5 6.16023V12.9837C14.5 15.4759 12.9266 17.0241 10.3946 17.0241Z" fill="#C5C5C5"/>
</g>
</svg>
