<svg width="39" height="22" viewBox="0 0 39 22" fill="none" xmlns="http://www.w3.org/2000/svg">
<path d="M19.8927 16.126V4.92598H23.7167C25.0287 4.92598 26.106 5.16064 26.9487 5.62998C27.802 6.08864 28.4314 6.73931 28.8367 7.58198C29.2527 8.41398 29.4607 9.39531 29.4607 10.526C29.4607 11.6566 29.2527 12.6433 28.8367 13.486C28.4314 14.318 27.802 14.9686 26.9487 15.438C26.106 15.8966 25.0287 16.126 23.7167 16.126H19.8927ZM21.9407 14.366H23.6207C24.5594 14.366 25.3007 14.2166 25.8447 13.918C26.3887 13.6086 26.778 13.1713 27.0127 12.606C27.2474 12.03 27.3647 11.3366 27.3647 10.526C27.3647 9.72598 27.2474 9.03798 27.0127 8.46198C26.778 7.88598 26.3887 7.44331 25.8447 7.13398C25.3007 6.82464 24.5594 6.66998 23.6207 6.66998H21.9407V14.366ZM34.1957 16.318C33.1077 16.318 32.233 16.014 31.5717 15.406C30.921 14.7873 30.5957 13.9126 30.5957 12.782H32.6437C32.6544 13.3046 32.777 13.7206 33.0117 14.03C33.2464 14.3393 33.625 14.494 34.1477 14.494C34.6384 14.494 34.9957 14.35 35.2197 14.062C35.4437 13.7633 35.5557 13.374 35.5557 12.894V4.92598H37.6037V12.894C37.6037 13.9926 37.2944 14.8406 36.6757 15.438C36.0677 16.0246 35.241 16.318 34.1957 16.318Z" fill="#FFE81A"/>
<path d="M6.87017 4.2074H5.83876C5.72529 4.20713 5.61289 4.22998 5.50801 4.27463C5.40312 4.31929 5.30783 4.38489 5.22759 4.46764C5.14735 4.55039 5.08376 4.64868 5.04046 4.75685C4.99715 4.86502 4.975 4.98095 4.97526 5.09798V12.3133C4.51973 12.1527 4.0415 12.0712 3.56008 12.0721C1.73114 12.0721 0.25 13.1854 0.25 14.5583C0.25 15.9313 1.73114 17.0445 3.56008 17.0445C5.38902 17.0445 6.87017 15.9313 6.87017 14.5583V7.69756C7.38187 7.78415 7.53377 8.50981 8.12343 9.63746C9.49663 12.2659 11.5714 12.0618 11.5714 12.0618C7.55976 9.46841 9.66055 4.2074 6.87017 4.2074Z" fill="#FFE81A"/>
</svg>
