<svg width="11" height="12" viewBox="0 0 11 12" fill="none" xmlns="http://www.w3.org/2000/svg">
<path fill-rule="evenodd" clip-rule="evenodd" d="M5.75051 3.93951C5.16565 3.93951 4.68987 4.41528 4.68987 5.00075C4.68987 5.58562 5.16565 6.06078 5.75051 6.06078C6.33538 6.06078 6.81115 5.58562 6.81115 5.00075C6.81115 4.41528 6.33538 3.93951 5.75051 3.93951ZM5.75052 6.96991C4.66442 6.96991 3.78076 6.08685 3.78076 5.00076C3.78076 3.91406 4.66442 3.0304 5.75052 3.0304C6.83661 3.0304 7.72028 3.91406 7.72028 5.00076C7.72028 6.08685 6.83661 6.96991 5.75052 6.96991Z" fill="#DFE1E2"/>
<mask id="mask0_11_53" style="mask-type:alpha" maskUnits="userSpaceOnUse" x="0" y="0" width="11" height="12">
<path fill-rule="evenodd" clip-rule="evenodd" d="M0.75 0H10.75V11.8185H0.75V0Z" fill="white"/>
</mask>
<g mask="url(#mask0_11_53)">
<path fill-rule="evenodd" clip-rule="evenodd" d="M5.74986 0.909118C3.49404 0.909118 1.65883 2.7619 1.65883 5.03833C1.65883 7.93479 5.06742 10.7567 5.74986 10.907C6.43231 10.7561 9.84089 7.93418 9.84089 5.03833C9.84089 2.7619 8.00569 0.909118 5.74986 0.909118V0.909118ZM5.74966 11.8185C4.66236 11.8185 0.749512 8.45359 0.749512 5.03833C0.749512 2.26007 2.99261 0 5.74966 0C8.50672 0 10.7498 2.26007 10.7498 5.03833C10.7498 8.45359 6.83697 11.8185 5.74966 11.8185V11.8185Z" fill="#DFE1E2"/>
</g>
</svg>
