<svg width="16" height="16" viewBox="0 0 16 16" fill="none" xmlns="http://www.w3.org/2000/svg">
<path d="M7.13727 4.20152C6.24462 3.3089 4.79737 3.30893 3.90471 4.20152C3.01205 3.30887 1.5648 3.3089 0.672178 4.20152C-0.220479 5.09418 -0.220479 6.54143 0.672178 7.43409L3.90471 10.6666L7.13727 7.43409C8.0299 6.54143 8.02993 5.09418 7.13727 4.20152Z" fill="#C5C5C5"/>
<path d="M9.5211 12.5324C9.0891 12.3171 8.564 12.1905 7.99725 12.1905C6.52447 12.1905 5.33057 13.0433 5.33057 14.0952C5.33057 15.1472 6.52447 16 7.99725 16C9.47004 16 10.6639 15.1472 10.6639 14.0952V4.95227H9.52107V12.5324H9.5211Z" fill="#C5C5C5"/>
<path d="M10.6639 0H9.521V3.80938H10.6639C13.7115 3.80938 14.4734 6.81894 14.4734 9.10469C15.4386 8.13953 15.9972 6.80619 15.9972 5.33341C15.9973 2.38784 13.6094 0 10.6639 0Z" fill="#C5C5C5"/>
</svg>
