<svg width="22" height="27" viewBox="0 0 22 27" fill="none" xmlns="http://www.w3.org/2000/svg">
<mask id="mask0_7_107" style="mask-type:alpha" maskUnits="userSpaceOnUse" x="0" y="0" width="22" height="22">
<path fill-rule="evenodd" clip-rule="evenodd" d="M0.174316 0.812622H21.9998V21.2825H0.174316V0.812622Z" fill="white"/>
</mask>
<g mask="url(#mask0_7_107)">
<path fill-rule="evenodd" clip-rule="evenodd" d="M11.0854 2.58257C6.96143 2.58257 4.08706 5.81329 4.08706 8.71243C4.08706 11.1656 3.40623 12.2995 2.80445 13.3001C2.32185 14.1036 1.94072 14.7385 1.94072 16.1178C2.13778 18.3432 3.60682 19.5126 11.0854 19.5126C18.5226 19.5126 20.0377 18.2913 20.2336 16.0411C20.23 14.7385 19.8489 14.1036 19.3663 13.3001C18.7645 12.2995 18.0837 11.1656 18.0837 8.71243C18.0837 5.81329 15.2093 2.58257 11.0854 2.58257ZM11.0854 21.2825C5.5679 21.2825 0.581417 20.8931 0.174332 16.1933C0.170792 14.2488 0.76431 13.26 1.28821 12.3892C1.81801 11.5066 2.31713 10.6747 2.31713 8.71242C2.31713 4.89763 5.84047 0.812622 11.0854 0.812622C16.3303 0.812622 19.8536 4.89763 19.8536 8.71242C19.8536 10.6747 20.3527 11.5066 20.8825 12.3892C21.4064 13.26 22 14.2488 22 16.1178C21.5882 20.8931 16.6028 21.2825 11.0854 21.2825Z" fill="white"/>
</g>
<path fill-rule="evenodd" clip-rule="evenodd" d="M11.0279 26.1817H11.0255C9.70278 26.1805 8.45084 25.5976 7.50098 24.5392C7.17413 24.1769 7.20363 23.6165 7.56706 23.2908C7.93048 22.9628 8.48978 22.9923 8.81663 23.3569C9.42785 24.0377 10.2125 24.4118 11.0267 24.4118H11.0279C11.8456 24.4118 12.6338 24.0377 13.2462 23.3557C13.5742 22.9935 14.1335 22.964 14.4958 23.2908C14.8592 23.6176 14.8887 24.1781 14.5618 24.5404C13.6084 25.5988 12.3541 26.1817 11.0279 26.1817Z" fill="white"/>
</svg>
