<svg width="32" height="32" viewBox="0 0 32 32" fill="none" xmlns="http://www.w3.org/2000/svg">
<circle cx="16" cy="16" r="16" fill="url(#paint0_linear_206_653)" style="mix-blend-mode:screen"/>
<path d="M21.7022 12.2604C21.6162 12.1779 21.5139 12.1124 21.4012 12.0677C21.2885 12.023 21.1676 12 21.0454 12C20.9233 12 20.8024 12.023 20.6897 12.0677C20.577 12.1124 20.4747 12.1779 20.3887 12.2604L13.4973 18.8289L10.6021 16.0642C10.5128 15.9821 10.4074 15.9175 10.2919 15.8742C10.1764 15.8309 10.0531 15.8096 9.92894 15.8117C9.80482 15.8137 9.68234 15.839 9.56849 15.8861C9.45464 15.9332 9.35165 16.0012 9.26541 16.0862C9.17916 16.1712 9.11134 16.2715 9.06583 16.3814C9.02032 16.4913 8.99799 16.6087 9.00014 16.7269C9.00229 16.845 9.02886 16.9616 9.07834 17.07C9.12783 17.1784 9.19925 17.2764 9.28853 17.3585L12.8406 20.7396C12.9266 20.8221 13.0289 20.8876 13.1416 20.9323C13.2543 20.977 13.3752 21 13.4973 21C13.6195 21 13.7404 20.977 13.8531 20.9323C13.9658 20.8876 14.0681 20.8221 14.1541 20.7396L21.7022 13.5548C21.7961 13.4723 21.871 13.3722 21.9223 13.2609C21.9735 13.1495 22 13.0292 22 12.9076C22 12.786 21.9735 12.6657 21.9223 12.5543C21.871 12.443 21.7961 12.3429 21.7022 12.2604Z" fill="white"/>
<defs>
<linearGradient id="paint0_linear_206_653" x1="0.986301" y1="16" x2="32" y2="15.9999" gradientUnits="userSpaceOnUse">
<stop stop-color="#195DE3"/>
<stop offset="1" stop-color="#BF6DCC" stop-opacity="0.65"/>
</linearGradient>
</defs>
</svg>
