<svg width="18" height="19" viewBox="0 0 18 19" fill="none" xmlns="http://www.w3.org/2000/svg">
<mask id="mask0_85_256" style="mask-type:alpha" maskUnits="userSpaceOnUse" x="-1" y="6" width="19" height="13">
<path fill-rule="evenodd" clip-rule="evenodd" d="M-0.000366211 6.11487H18V18.485H-0.000366211V6.11487Z" fill="white"/>
</mask>
<g mask="url(#mask0_85_256)">
<path fill-rule="evenodd" clip-rule="evenodd" d="M14.0087 18.485H3.9913C1.79071 18.485 -0.000366211 16.6948 -0.000366211 14.4933V10.1056C-0.000366211 7.90504 1.79071 6.11487 3.9913 6.11487H4.83104C5.20365 6.11487 5.50607 6.41728 5.50607 6.7899C5.50607 7.16251 5.20365 7.46493 4.83104 7.46493H3.9913C2.53414 7.46493 1.34969 8.64938 1.34969 10.1056V14.4933C1.34969 15.9505 2.53414 17.1349 3.9913 17.1349H14.0087C15.465 17.1349 16.6503 15.9505 16.6503 14.4933V10.0975C16.6503 8.64578 15.4695 7.46493 14.0186 7.46493H13.1699C12.7973 7.46493 12.4949 7.16251 12.4949 6.7899C12.4949 6.41728 12.7973 6.11487 13.1699 6.11487H14.0186C16.2138 6.11487 18.0004 7.90144 18.0004 10.0975V14.4933C18.0004 16.6948 16.2093 18.485 14.0087 18.485Z" fill="white"/>
</g>
<mask id="mask1_85_256" style="mask-type:alpha" maskUnits="userSpaceOnUse" x="8" y="0" width="2" height="13">
<path fill-rule="evenodd" clip-rule="evenodd" d="M8.32465 0H9.6747V12.1873H8.32465V0Z" fill="white"/>
</mask>
<g mask="url(#mask1_85_256)">
<path fill-rule="evenodd" clip-rule="evenodd" d="M8.99967 12.1873C8.62706 12.1873 8.32465 11.8849 8.32465 11.5123V0.674906C8.32465 0.302291 8.62706 -0.00012207 8.99967 -0.00012207C9.37229 -0.00012207 9.6747 0.302291 9.6747 0.674906V11.5123C9.6747 11.8849 9.37229 12.1873 8.99967 12.1873Z" fill="white"/>
</g>
<path fill-rule="evenodd" clip-rule="evenodd" d="M6.37604 3.98592C6.20413 3.98592 6.03132 3.92021 5.89992 3.78881C5.63621 3.526 5.63441 3.09938 5.89812 2.83477L8.52173 0.199456C8.77464 -0.0552548 9.22466 -0.0552548 9.47757 0.199456L12.1021 2.83477C12.3649 3.09938 12.364 3.526 12.1003 3.78881C11.8357 4.05162 11.4091 4.05162 11.1462 3.78701L8.99965 1.63232L6.85396 3.78701C6.72255 3.92021 6.54885 3.98592 6.37604 3.98592Z" fill="white"/>
</svg>
