<svg width="86" height="48" viewBox="0 0 86 48" fill="none" xmlns="http://www.w3.org/2000/svg">
<path d="M4.251 43.1998C3.627 43.1998 3.05933 43.0785 2.548 42.8358C2.04533 42.5845 1.64233 42.1988 1.339 41.6788C1.03567 41.1588 0.884 40.4958 0.884 39.6898V33.9438H1.976V39.7028C1.976 40.5868 2.18833 41.2282 2.613 41.6268C3.03767 42.0255 3.59233 42.2248 4.277 42.2248C4.96167 42.2248 5.512 42.0255 5.928 41.6268C6.344 41.2282 6.552 40.5868 6.552 39.7028V33.9438H7.644V39.6898C7.644 40.4958 7.49233 41.1588 7.189 41.6788C6.88567 42.1988 6.47833 42.5845 5.967 42.8358C5.45567 43.0785 4.88367 43.1998 4.251 43.1998ZM9.16825 45.9038V36.5958H10.1562L10.2602 37.6618C10.4682 37.3498 10.7629 37.0682 11.1442 36.8168C11.5342 36.5655 12.0282 36.4398 12.6262 36.4398C13.2676 36.4398 13.8266 36.5872 14.3032 36.8818C14.7799 37.1765 15.1483 37.5795 15.4083 38.0908C15.6769 38.6022 15.8113 39.1828 15.8113 39.8328C15.8113 40.4828 15.6769 41.0635 15.4083 41.5748C15.1483 42.0775 14.7756 42.4762 14.2903 42.7708C13.8136 43.0568 13.2546 43.1998 12.6133 43.1998C12.0846 43.1998 11.6122 43.0915 11.1962 42.8748C10.7889 42.6582 10.4769 42.3548 10.2602 41.9648V45.9038H9.16825ZM12.4963 42.2508C12.9296 42.2508 13.3109 42.1512 13.6402 41.9518C13.9696 41.7438 14.2296 41.4578 14.4203 41.0938C14.6109 40.7298 14.7063 40.3052 14.7063 39.8198C14.7063 39.3345 14.6109 38.9098 14.4203 38.5458C14.2296 38.1818 13.9696 37.9002 13.6402 37.7008C13.3109 37.4928 12.9296 37.3888 12.4963 37.3888C12.0629 37.3888 11.6816 37.4928 11.3523 37.7008C11.0229 37.9002 10.7629 38.1818 10.5722 38.5458C10.3816 38.9098 10.2862 39.3345 10.2862 39.8198C10.2862 40.3052 10.3816 40.7298 10.5722 41.0938C10.7629 41.4578 11.0229 41.7438 11.3523 41.9518C11.6816 42.1512 12.0629 42.2508 12.4963 42.2508ZM17.0713 43.0438V33.6838H18.1633V43.0438H17.0713ZM22.6312 43.1998C22.0245 43.1998 21.4785 43.0612 20.9932 42.7838C20.5078 42.5065 20.1222 42.1165 19.8362 41.6138C19.5588 41.1025 19.4202 40.5045 19.4202 39.8198C19.4202 39.1352 19.5632 38.5415 19.8492 38.0388C20.1352 37.5275 20.5208 37.1332 21.0062 36.8558C21.5002 36.5785 22.0505 36.4398 22.6572 36.4398C23.2638 36.4398 23.8098 36.5785 24.2952 36.8558C24.7805 37.1332 25.1618 37.5275 25.4392 38.0388C25.7252 38.5415 25.8682 39.1352 25.8682 39.8198C25.8682 40.5045 25.7252 41.1025 25.4392 41.6138C25.1532 42.1165 24.7632 42.5065 24.2692 42.7838C23.7838 43.0612 23.2378 43.1998 22.6312 43.1998ZM22.6312 42.2638C23.0038 42.2638 23.3505 42.1728 23.6712 41.9908C23.9918 41.8088 24.2518 41.5358 24.4512 41.1718C24.6505 40.8078 24.7502 40.3572 24.7502 39.8198C24.7502 39.2825 24.6505 38.8318 24.4512 38.4678C24.2605 38.1038 24.0048 37.8308 23.6842 37.6488C23.3635 37.4668 23.0212 37.3758 22.6572 37.3758C22.2845 37.3758 21.9378 37.4668 21.6172 37.6488C21.2965 37.8308 21.0365 38.1038 20.8372 38.4678C20.6378 38.8318 20.5382 39.2825 20.5382 39.8198C20.5382 40.3572 20.6378 40.8078 20.8372 41.1718C21.0365 41.5358 21.2922 41.8088 21.6042 41.9908C21.9248 42.1728 22.2672 42.2638 22.6312 42.2638ZM29.2715 43.1998C28.7342 43.1998 28.2879 43.1088 27.9325 42.9268C27.5772 42.7448 27.3129 42.5022 27.1395 42.1988C26.9662 41.8955 26.8795 41.5662 26.8795 41.2108C26.8795 40.5522 27.1309 40.0452 27.6335 39.6898C28.1362 39.3345 28.8209 39.1568 29.6875 39.1568H31.4295V39.0788C31.4295 38.5155 31.2822 38.0908 30.9875 37.8048C30.6929 37.5102 30.2985 37.3628 29.8045 37.3628C29.3799 37.3628 29.0115 37.4712 28.6995 37.6878C28.3962 37.8958 28.2055 38.2035 28.1275 38.6108H27.0095C27.0529 38.1428 27.2089 37.7485 27.4775 37.4278C27.7549 37.1072 28.0972 36.8645 28.5045 36.6998C28.9119 36.5265 29.3452 36.4398 29.8045 36.4398C30.7059 36.4398 31.3819 36.6825 31.8325 37.1678C32.2919 37.6445 32.5215 38.2815 32.5215 39.0788V43.0438H31.5465L31.4815 41.8868C31.2995 42.2508 31.0309 42.5628 30.6755 42.8228C30.3289 43.0742 29.8609 43.1998 29.2715 43.1998ZM29.4405 42.2768C29.8565 42.2768 30.2119 42.1685 30.5065 41.9518C30.8099 41.7352 31.0395 41.4535 31.1955 41.1068C31.3515 40.7602 31.4295 40.3962 31.4295 40.0148V40.0018H29.7785C29.1372 40.0018 28.6822 40.1145 28.4135 40.3398C28.1535 40.5565 28.0235 40.8295 28.0235 41.1588C28.0235 41.4968 28.1449 41.7698 28.3875 41.9778C28.6389 42.1772 28.9899 42.2768 29.4405 42.2768ZM36.8247 43.1998C36.1834 43.1998 35.6201 43.0525 35.1347 42.7578C34.6581 42.4632 34.2854 42.0602 34.0167 41.5488C33.7567 41.0375 33.6267 40.4568 33.6267 39.8068C33.6267 39.1568 33.7611 38.5805 34.0297 38.0778C34.2984 37.5665 34.6711 37.1678 35.1477 36.8818C35.6244 36.5872 36.1877 36.4398 36.8377 36.4398C37.3664 36.4398 37.8344 36.5482 38.2417 36.7648C38.6491 36.9815 38.9654 37.2848 39.1907 37.6748V33.6838H40.2827V43.0438H39.2947L39.1907 41.9778C38.9827 42.2898 38.6837 42.5715 38.2937 42.8228C37.9037 43.0742 37.4141 43.1998 36.8247 43.1998ZM36.9417 42.2508C37.3751 42.2508 37.7564 42.1512 38.0857 41.9518C38.4237 41.7438 38.6837 41.4578 38.8657 41.0938C39.0564 40.7298 39.1517 40.3052 39.1517 39.8198C39.1517 39.3345 39.0564 38.9098 38.8657 38.5458C38.6837 38.1818 38.4237 37.9002 38.0857 37.7008C37.7564 37.4928 37.3751 37.3888 36.9417 37.3888C36.5171 37.3888 36.1357 37.4928 35.7977 37.7008C35.4684 37.9002 35.2084 38.1818 35.0177 38.5458C34.8357 38.9098 34.7447 39.3345 34.7447 39.8198C34.7447 40.3052 34.8357 40.7298 35.0177 41.0938C35.2084 41.4578 35.4684 41.7438 35.7977 41.9518C36.1357 42.1512 36.5171 42.2508 36.9417 42.2508ZM45.0483 43.0438V33.9438H46.1403V43.0438H45.0483ZM47.7447 43.0438V36.5958H48.7327L48.8107 37.5318C49.0187 37.1852 49.2961 36.9165 49.6427 36.7258C49.9894 36.5352 50.3794 36.4398 50.8127 36.4398C51.3241 36.4398 51.7617 36.5438 52.1257 36.7518C52.4984 36.9598 52.7844 37.2762 52.9837 37.7008C53.2091 37.3108 53.5167 37.0032 53.9067 36.7778C54.3054 36.5525 54.7344 36.4398 55.1937 36.4398C55.9651 36.4398 56.5804 36.6738 57.0397 37.1418C57.4991 37.6012 57.7287 38.3118 57.7287 39.2738V43.0438H56.6497V39.3908C56.6497 38.7235 56.5154 38.2208 56.2467 37.8828C55.9781 37.5448 55.5924 37.3758 55.0897 37.3758C54.5697 37.3758 54.1364 37.5795 53.7897 37.9868C53.4517 38.3855 53.2827 38.9575 53.2827 39.7028V43.0438H52.1907V39.3908C52.1907 38.7235 52.0564 38.2208 51.7877 37.8828C51.5191 37.5448 51.1334 37.3758 50.6307 37.3758C50.1194 37.3758 49.6904 37.5795 49.3437 37.9868C49.0057 38.3855 48.8367 38.9575 48.8367 39.7028V43.0438H47.7447ZM61.2586 43.1998C60.7213 43.1998 60.275 43.1088 59.9196 42.9268C59.5643 42.7448 59.3 42.5022 59.1266 42.1988C58.9533 41.8955 58.8666 41.5662 58.8666 41.2108C58.8666 40.5522 59.118 40.0452 59.6206 39.6898C60.1233 39.3345 60.808 39.1568 61.6746 39.1568H63.4166V39.0788C63.4166 38.5155 63.2693 38.0908 62.9746 37.8048C62.68 37.5102 62.2856 37.3628 61.7916 37.3628C61.367 37.3628 60.9986 37.4712 60.6866 37.6878C60.3833 37.8958 60.1926 38.2035 60.1146 38.6108H58.9966C59.04 38.1428 59.196 37.7485 59.4646 37.4278C59.742 37.1072 60.0843 36.8645 60.4916 36.6998C60.899 36.5265 61.3323 36.4398 61.7916 36.4398C62.693 36.4398 63.369 36.6825 63.8196 37.1678C64.279 37.6445 64.5086 38.2815 64.5086 39.0788V43.0438H63.5336L63.4686 41.8868C63.2866 42.2508 63.018 42.5628 62.6626 42.8228C62.316 43.0742 61.848 43.1998 61.2586 43.1998ZM61.4276 42.2768C61.8436 42.2768 62.199 42.1685 62.4936 41.9518C62.797 41.7352 63.0266 41.4535 63.1826 41.1068C63.3386 40.7602 63.4166 40.3962 63.4166 40.0148V40.0018H61.7656C61.1243 40.0018 60.6693 40.1145 60.4006 40.3398C60.1406 40.5565 60.0106 40.8295 60.0106 41.1588C60.0106 41.4968 60.132 41.7698 60.3746 41.9778C60.626 42.1772 60.977 42.2768 61.4276 42.2768ZM68.4348 41.0158C68.0708 41.0158 67.7372 40.9682 67.4338 40.8728L66.7838 41.4838C66.8792 41.5532 66.9962 41.6138 67.1348 41.6658C67.2822 41.7092 67.4902 41.7525 67.7588 41.7958C68.0275 41.8305 68.4045 41.8695 68.8898 41.9128C69.7565 41.9735 70.3762 42.1728 70.7488 42.5108C71.1215 42.8488 71.3078 43.2908 71.3078 43.8368C71.3078 44.2095 71.2038 44.5648 70.9958 44.9028C70.7965 45.2408 70.4845 45.5182 70.0598 45.7348C69.6438 45.9515 69.1065 46.0598 68.4478 46.0598C67.8672 46.0598 67.3515 45.9818 66.9008 45.8258C66.4502 45.6785 66.0992 45.4488 65.8478 45.1368C65.5965 44.8335 65.4708 44.4478 65.4708 43.9798C65.4708 43.7372 65.5358 43.4728 65.6658 43.1868C65.7958 42.9095 66.0385 42.6452 66.3938 42.3938C66.2032 42.3158 66.0385 42.2335 65.8998 42.1468C65.7698 42.0515 65.6485 41.9475 65.5358 41.8348V41.5358L66.6408 40.4438C66.1295 40.0105 65.8738 39.4385 65.8738 38.7278C65.8738 38.3032 65.9735 37.9175 66.1728 37.5708C66.3722 37.2242 66.6625 36.9512 67.0438 36.7518C67.4252 36.5438 67.8888 36.4398 68.4348 36.4398C68.8075 36.4398 69.1455 36.4918 69.4488 36.5958H71.8278V37.4148L70.6188 37.4668C70.8702 37.8308 70.9958 38.2512 70.9958 38.7278C70.9958 39.1525 70.8918 39.5382 70.6838 39.8848C70.4845 40.2315 70.1942 40.5088 69.8128 40.7168C69.4402 40.9162 68.9808 41.0158 68.4348 41.0158ZM68.4348 40.1188C68.8942 40.1188 69.2582 40.0018 69.5268 39.7678C69.8042 39.5252 69.9428 39.1785 69.9428 38.7278C69.9428 38.2858 69.8042 37.9478 69.5268 37.7138C69.2582 37.4712 68.8942 37.3498 68.4348 37.3498C67.9668 37.3498 67.5942 37.4712 67.3168 37.7138C67.0482 37.9478 66.9138 38.2858 66.9138 38.7278C66.9138 39.1785 67.0482 39.5252 67.3168 39.7678C67.5942 40.0018 67.9668 40.1188 68.4348 40.1188ZM66.5368 43.8758C66.5368 44.3092 66.7188 44.6298 67.0828 44.8378C67.4468 45.0545 67.9018 45.1628 68.4478 45.1628C68.9852 45.1628 69.4142 45.0458 69.7348 44.8118C70.0642 44.5778 70.2288 44.2658 70.2288 43.8758C70.2288 43.5985 70.1162 43.3558 69.8908 43.1478C69.6655 42.9485 69.2495 42.8315 68.6428 42.7968C68.1662 42.7622 67.7545 42.7188 67.4078 42.6668C67.0525 42.8575 66.8185 43.0612 66.7058 43.2778C66.5932 43.5032 66.5368 43.7025 66.5368 43.8758ZM75.4448 43.1998C74.8295 43.1998 74.2835 43.0612 73.8068 42.7838C73.3301 42.4978 72.9531 42.1035 72.6758 41.6008C72.4071 41.0982 72.2728 40.5045 72.2728 39.8198C72.2728 39.1438 72.4071 38.5545 72.6758 38.0518C72.9445 37.5405 73.3171 37.1462 73.7938 36.8688C74.2791 36.5828 74.8381 36.4398 75.4708 36.4398C76.0948 36.4398 76.6321 36.5828 77.0828 36.8688C77.5421 37.1462 77.8931 37.5145 78.1358 37.9738C78.3785 38.4332 78.4998 38.9272 78.4998 39.4558C78.4998 39.5512 78.4955 39.6465 78.4868 39.7418C78.4868 39.8372 78.4868 39.9455 78.4868 40.0668H73.3518C73.3778 40.5608 73.4905 40.9725 73.6898 41.3018C73.8978 41.6225 74.1535 41.8652 74.4568 42.0298C74.7688 42.1945 75.0981 42.2768 75.4448 42.2768C75.8955 42.2768 76.2725 42.1728 76.5758 41.9648C76.8791 41.7568 77.1001 41.4752 77.2388 41.1198H78.3178C78.1445 41.7178 77.8108 42.2162 77.3168 42.6148C76.8315 43.0048 76.2075 43.1998 75.4448 43.1998ZM75.4448 37.3628C74.9248 37.3628 74.4611 37.5232 74.0538 37.8438C73.6551 38.1558 73.4255 38.6152 73.3648 39.2218H77.4208C77.3948 38.6412 77.1955 38.1862 76.8228 37.8568C76.4501 37.5275 75.9908 37.3628 75.4448 37.3628ZM82.1572 43.1998C81.3858 43.1998 80.7445 43.0048 80.2332 42.6148C79.7218 42.2248 79.4228 41.6962 79.3362 41.0288H80.4542C80.5235 41.3668 80.7012 41.6615 80.9872 41.9128C81.2818 42.1555 81.6762 42.2768 82.1702 42.2768C82.6295 42.2768 82.9675 42.1815 83.1842 41.9908C83.4008 41.7915 83.5092 41.5575 83.5092 41.2888C83.5092 40.8988 83.3662 40.6388 83.0802 40.5088C82.8028 40.3788 82.4085 40.2618 81.8972 40.1578C81.5505 40.0885 81.2038 39.9888 80.8572 39.8588C80.5105 39.7288 80.2202 39.5468 79.9862 39.3128C79.7522 39.0702 79.6352 38.7538 79.6352 38.3638C79.6352 37.8005 79.8432 37.3412 80.2592 36.9858C80.6838 36.6218 81.2558 36.4398 81.9752 36.4398C82.6598 36.4398 83.2188 36.6132 83.6522 36.9598C84.0942 37.2978 84.3498 37.7832 84.4192 38.4158H83.3402C83.2968 38.0865 83.1538 37.8308 82.9112 37.6488C82.6772 37.4582 82.3608 37.3628 81.9622 37.3628C81.5722 37.3628 81.2688 37.4452 81.0522 37.6098C80.8442 37.7745 80.7402 37.9912 80.7402 38.2598C80.7402 38.5198 80.8745 38.7235 81.1432 38.8708C81.4205 39.0182 81.7932 39.1438 82.2612 39.2478C82.6598 39.3345 83.0368 39.4428 83.3922 39.5728C83.7562 39.6942 84.0508 39.8805 84.2762 40.1318C84.5102 40.3745 84.6272 40.7298 84.6272 41.1978C84.6358 41.7785 84.4148 42.2595 83.9642 42.6408C83.5222 43.0135 82.9198 43.1998 82.1572 43.1998Z" fill="#C5C5C5"/>
<mask id="mask0_206_557" style="mask-type:alpha" maskUnits="userSpaceOnUse" x="31" y="0" width="23" height="23">
<path fill-rule="evenodd" clip-rule="evenodd" d="M31.9561 0H53.9966V22.0416H31.9561V0Z" fill="white"/>
</mask>
<g mask="url(#mask0_206_557)">
<path fill-rule="evenodd" clip-rule="evenodd" d="M38.1983 1.6568C35.4135 1.6568 33.613 3.5667 33.613 6.52157V15.5198C33.613 18.4758 35.4135 20.3846 38.1983 20.3846H47.7489C50.538 20.3846 52.3397 18.4758 52.3397 15.5198V6.52157C52.3419 5.01596 51.8824 3.7589 51.0119 2.88735C50.2078 2.08208 49.0821 1.6568 47.7544 1.6568H38.1983ZM47.7489 22.0415H38.1983C34.4647 22.0415 31.9561 19.4203 31.9561 15.5198V6.52158C31.9561 2.62115 34.4647 -0.00012207 38.1983 -0.00012207H47.7544C49.5306 -0.00012207 51.0627 0.593061 52.1839 1.71646C53.3559 2.88957 53.9988 4.59622 53.9966 6.52268V15.5198C53.9966 19.4203 51.4858 22.0415 47.7489 22.0415Z" fill="#C5C5C5"/>
</g>
<path fill-rule="evenodd" clip-rule="evenodd" d="M39.5293 6.28462C38.8622 6.28462 38.3198 6.82699 38.3198 7.49529C38.3198 8.16248 38.8622 8.70485 39.5305 8.70485C40.1976 8.70485 40.7411 8.16248 40.7411 7.49639C40.74 6.8281 40.1965 6.28572 39.5293 6.28462ZM39.5304 10.3618C37.9486 10.3618 36.6628 9.07601 36.6628 7.49529C36.6628 5.91347 37.9486 4.62769 39.5304 4.62769C41.1112 4.62879 42.3969 5.91457 42.398 7.49418V7.49529C42.398 9.07601 41.1123 10.3618 39.5304 10.3618Z" fill="#C5C5C5"/>
<path fill-rule="evenodd" clip-rule="evenodd" d="M33.8876 20.0061C33.7506 20.0061 33.6114 19.9718 33.4833 19.9C33.0834 19.6758 32.9431 19.171 33.1663 18.7722C33.2326 18.6529 34.8177 15.8505 36.5619 14.4145C37.9449 13.2767 39.4339 13.9019 40.6335 14.4067C41.3394 14.7039 42.0066 14.9845 42.6473 14.9845C43.2349 14.9845 43.9717 13.9461 44.6234 13.0304C45.5281 11.7534 46.5554 10.3086 48.0599 10.3086C50.457 10.3086 52.5259 12.4471 53.6383 13.596L53.7664 13.7285C54.0845 14.0566 54.0768 14.5813 53.7487 14.9005C53.4229 15.2198 52.8982 15.212 52.5778 14.8828L52.4475 14.7481C51.5063 13.7749 49.7544 11.9655 48.0599 11.9655C47.4104 11.9655 46.6482 13.0403 45.9733 13.9892C45.0476 15.2927 44.0899 16.6414 42.6473 16.6414C41.6719 16.6414 40.7782 16.2658 39.9906 15.9333C38.738 15.4053 38.1702 15.2363 37.6146 15.6936C36.1079 16.9352 34.6255 19.5576 34.6111 19.583C34.4598 19.8536 34.1781 20.0061 33.8876 20.0061Z" fill="#C5C5C5"/>
</svg>
